:SAMPLES-PER-SECOND 30
:FULLY-SPECIFIED
:DEGREES
40
root  11.09252314 37.63777665 -6.671666724 -15.00010014 -49.3409996 12.64319992
lfemur  -21.15080452 2.404969692 -13.4292984
ltibia  -1.491570742e-006 -8.364404493e-007 54.49660873
lfoot  5.521815751e-007 -16.74040222 -3.462650537
ltoes  -4.250644065 -19.5611806 -102.515957
rfemur  -11.31250191 17.91139984 -1.65580976
rtibia  -8.727266732e-007 2.533748784e-007 61.97750473
rfoot  -2.316020982e-006 -23.38340187 -5.064331055
rtoes  5.373923086 19.29304026 -105.8922705
lowerback  11.83460045 1.313159943 -3.216180086
upperback  3.672729969 1.331200004 1.018030047
thorax  -2.886009932 0.6305980086 2.687269926
rclavicle  0 -9.442270133e-015 7.951389973e-016
rhumerus  3.562920094 16.6996994 -71.00119781
rradius  -7.782816926e-012 0.001642658608 139.7890015
rwrist  0.002739921212 0.003270594636 -19.68600082
rthumb  -92.93752616 -24.25625642 -97.11982154
rhand  -7.920061211e-032 -33.2840004 9.303460121
rfingers  -90 -7.125020027 -90
lclavicle  0 -9.442270133e-015 7.951389973e-016
lhumerus  2.737590551 -2.773069859 64.99549866
lradius  1.032090125e-011 -0.003757435596 138.9140015
lwrist  1.816137865e-011 1.409039812e-011 16.6868
lthumb  89.89689403 5.08795885 91.16245106
lhand  -1.496451383e-031 -27.76390076 20.11240005
lfingers  90 7.125020027 -90
lowerneck  -3.827810049 5.991320133 -2.719719887
upperneck  7.020989895 7.80945015 5.214829445
head  2.57991004 3.977699995 2.405869961
41
root  11.09444476 37.44310995 -6.761777683 -15.86030006 -49.2879982 13.27950001
lfemur  -21.44510078 3.30941987 -13.80469894
ltibia  -1.491570742e-006 -8.364404493e-007 55.62009811
lfoot  5.521815751e-007 -17.13209915 -3.209659815
ltoes  -4.250644065 -19.5611806 -102.515957
rfemur  -11.22270203 18.02350044 -1.785000324
rtibia  -8.727266732e-007 2.533748784e-007 62.75469971
rfoot  -2.316020982e-006 -24.65559959 -5.644770145
rtoes  5.373923086 19.29304026 -105.8922705
lowerback  12.20049953 1.496629953 -3.780659914
upperback  3.753190041 1.482900023 0.7917050123
thorax  -3.019089937 0.7062019706 2.742749929
rclavicle  0 -9.442270133e-015 7.951389973e-016
rhumerus  4.109250069 16.03289986 -71.17980194
rradius  -7.782816926e-012 0.001642658608 140.3419952
rwrist  0.002739921212 0.003270594636 -20.22909927
rthumb  -92.93752616 -24.25625642 -97.11982154
rhand  -7.920061211e-032 -33.2840004 9.303460121
rfingers  -90 -7.125020027 -90
lclavicle  0 -9.442270133e-015 7.951389973e-016
lhumerus  4.540969849 -2.965339899 64.34750366
lradius  1.032090125e-011 -0.003757435596 138.6880035
lwrist  1.816137865e-011 1.409039812e-011 16.20549965
lthumb  89.89689403 5.08795885 91.16245106
lhand  -1.496451383e-031 -27.76390076 20.11240005
lfingers  90 7.125020027 -90
lowerneck  -3.822370052 5.864190102 -3.017879963
upperneck  7.014820099 7.621580601 5.750540257
head  2.555490017 3.89338994 2.629519939
42
root  11.09217771 37.29288897 -6.84288881 -16.25639915 -49.32389832 13.52740002
lfemur  -21.86009979 4.13380003 -13.92529869
ltibia  -1.491570742e-006 -8.364404493e-007 56.7030983
lfoot  5.521815751e-007 -17.64360046 -2.768549442
ltoes  -4.250644065 -19.5611806 -102.515957
rfemur  -11.34359837 17.89189911 -1.666701198
rtibia  -8.727266732e-007 2.533748784e-007 63.50139618
rfoot  -2.316020982e-006 -25.55179787 -6.525050163
rtoes  5.373923086 19.29304026 -105.8922705
lowerback  12.35789967 1.64677 -3.974020004
upperback  3.837140083 1.643730044 0.6296520233
thorax  -3.02940011 0.7840179801 2.656379938
rclavicle  0 -9.442270133e-015 7.951389973e-016
rhumerus  4.659530163 15.50749969 -71.35379791
rradius  -7.782817793e-012 0.001642658608 140.677002
rwrist  0.002739921212 0.003270594636 -20.56080055
rthumb  -92.93752616 -24.25625642 -97.11982154
rhand  -7.920061211e-032 -33.2840004 9.303460121
rfingers  -90 -7.125020027 -90
lclavicle  0 -9.442270133e-015 7.951389973e-016
lhumerus  6.20761013 -3.245929956 63.85319901
lradius  1.032090038e-011 -0.003757435596 138.5890045
lwrist  1.816137865e-011 1.409039812e-011 15.24199963
lthumb  89.89689403 5.08795885 91.16245106
lhand  -1.496451383e-031 -27.76390076 20.11240005
lfingers  90 7.125020027 -90
lowerneck  -3.858870029 5.714930058 -3.424160004
upperneck  6.952179432 7.418979645 6.23486948
head  2.5207901 3.797859907 2.85729003
43
root  11.09957808 37.17600004 -6.930666646 -16.07530022 -49.41030121 13.22929955
lfemur  -22.41340256 4.707809448 -13.6408968
ltibia  -1.491570742e-006 -8.364404493e-007 57.67390442
lfoot  5.521815751e-007 -18.1862011 -2.472219944
ltoes  -4.250644065 -19.5611806 -102.515957
rfemur  -11.65600109 17.61160088 -1.16964066
rtibia  -8.727266732e-007 2.533748784e-007 64.2036972
rfoot  -2.316020982e-006 -26.15590096 -7.880550861
rtoes  5.373923086 19.29304026 -105.8922705
lowerback  12.38300037 1.730530024 -3.787039995
upperback  3.919310093 1.773440003 0.5789030194
thorax  -2.960449934 0.8450689912 2.478640079
rclavicle  0 -9.442270133e-015 7.951389973e-016
rhumerus  5.257849216 15.07110023 -71.55819702
rradius  -7.782816926e-012 0.001642658608 140.8800049
rwrist  0.002739921212 0.003270594636 -20.74500084
rthumb  -92.93752616 -24.25625642 -97.11982154
rhand  -7.920061211e-032 -33.2840004 9.303460121
rfingers  -90 -7.125020027 -90
lclavicle  0 -9.442270133e-015 7.951389973e-016
lhumerus  7.841339111 -3.257480383 63.51330185
lradius  1.032090212e-011 -0.003757435596 138.3320007
lwrist  1.816137865e-011 1.409039812e-011 14.87749958
lthumb  89.89689403 5.08795885 91.16245106
lhand  -1.496451383e-031 -27.76390076 20.11240005
lfingers  90 7.125020027 -90
lowerneck  -3.86213994 5.611460209 -3.866260052
upperneck  6.783899784 7.28715992 6.684200287
head  2.442519903 3.734899998 3.078089952
44
root  11.11017813 37.06466795 -7.034177855 -15.6012001 -49.48730087 12.59570026
lfemur  -22.94060135 4.865880013 -13.08230019
ltibia  -1.491570742e-006 -8.364404493e-007 58.39680099
lfoot  5.521815751e-007 -18.41749763 -2.407640219
ltoes  -4.250644065 -19.5611806 -102.515957
rfemur  -12.00990105 17.21710014 -0.4257107675
rtibia  -8.727266732e-007 2.533748784e-007 64.88189697
rfoot  -2.316020982e-006 -26.73289871 -9.118800163
rtoes  5.373923086 19.29304026 -105.8922705
lowerback  12.37679958 1.815889955 -3.453219891
upperback  3.999109983 1.928590059 0.6350409985
thorax  -2.876760006 0.9189140201 2.326790094
rclavicle  0 -9.442270133e-015 7.951389973e-016
rhumerus  5.788470268 14.61340046 -71.70880127
rradius  -7.782817793e-012 0.001642658608 141.1779938
rwrist  0.002739921212 0.003270594636 -21.1067009
rthumb  -92.93752616 -24.25625642 -97.11982154
rhand  -7.920061211e-032 -33.2840004 9.303460121
rfingers  -90 -7.125020027 -90
lclavicle  0 -9.442270133e-015 7.951389973e-016
lhumerus  9.345628738 -3.215150595 63.48970032
lradius  1.032089952e-011 -0.003757435596 137.8699951
lwrist  1.816137865e-011 1.409039812e-011 14.76299953
lthumb  89.89689403 5.08795885 91.16245106
lhand  -1.496451383e-031 -27.76390076 20.11240005
lfingers  90 7.125020027 -90
lowerneck  -3.74800992 5.485690117 -4.064740181
upperneck  6.600550175 7.132219791 6.75494957
head  2.36074996 3.653219938 3.122790098
45
root  11.11366692 36.96244307 -7.134533679 -15.11060047 -49.55609894 11.94659996
lfemur  -23.3027935 4.730550289 -12.49510288
ltibia  -1.491570742e-006 -8.364404493e-007 58.82248688
lfoot  5.521815751e-007 -18.4610939 -2.266219139
ltoes  -4.250644065 -19.5611806 -102.515957
rfemur  -12.39229584 16.73970222 0.3089817166
rtibia  -8.727266732e-007 2.533748784e-007 65.51119232
rfoot  -2.316020982e-006 -27.25269508 -10.06609917
rtoes  5.373923086 19.29304026 -105.8922705
lowerback  12.25879955 1.89052999 -3.077120066
upperback  4.072979927 2.077369928 0.6559600234
thorax  -2.733930111 0.9898430109 2.118390083
rclavicle  0 -9.442270133e-015 7.951389973e-016
rhumerus  6.110970497 14.23580074 -71.94779968
rradius  -7.782816926e-012 0.001642658608 141.5399933
rwrist  0.002739921212 0.003270594636 -21.61639977
rthumb  -92.93752616 -24.25625642 -97.11982154
rhand  -7.920061211e-032 -33.2840004 9.303460121
rfingers  -90 -7.125020027 -90
lclavicle  0 -9.442270133e-015 7.951389973e-016
lhumerus  10.69229984 -3.310640097 63.47489929
lradius  1.032090038e-011 -0.003757435596 137.5809937
lwrist  1.816137865e-011 1.409039812e-011 14.64970016
lthumb  89.89689403 5.08795885 91.16245106
lhand  -1.496451383e-031 -27.76390076 20.11240005
lfingers  90 7.125020027 -90
lowerneck  -3.418859959 5.392419815 -4.022099972
upperneck  6.403999805 7.008679867 6.668529987
head  2.246370077 3.584959984 3.061690092
46
root  11.10788856 36.90044373 -7.234022186 -14.6807003 -49.57189941 11.37349987
lfemur  -23.48310471 4.241799355 -11.91469765
ltibia  -1.491570742e-006 -8.364404493e-007 58.9452095
lfoot  5.521815751e-007 -18.36270142 -2.363860369
ltoes  -4.250644065 -19.5611806 -102.515957
rfemur  -12.71310234 16.17539978 0.9499880075
rtibia  -8.727266732e-007 2.533748784e-007 66.04560852
rfoot  -2.316020982e-006 -27.46720123 -10.88980103
rtoes  5.373923086 19.29304026 -105.8922705
lowerback  12.09220028 1.921499968 -2.691400051
upperback  4.134109974 2.168960094 0.6472859979
thorax  -2.571589947 1.033419967 1.884119987
rclavicle  0 -9.442270133e-015 7.951389973e-016
rhumerus  6.33122015 14.10240078 -72.18560028
rradius  -7.782817793e-012 0.001642658608 141.8220062
rwrist  0.002739921212 0.003270594636 -22.20120049
rthumb  -92.93752616 -24.25625642 -97.11982154
rhand  -7.920061211e-032 -33.2840004 9.303460121
rfingers  -90 -7.125020027 -90
lclavicle  0 -9.442270133e-015 7.951389973e-016
lhumerus  11.93089962 -3.573139906 63.37279892
lradius  1.032090038e-011 -0.003757435596 137.5410004
lwrist  1.816137865e-011 1.409039812e-011 14.68299961
lthumb  89.89689403 5.08795885 91.16245106
lhand  -1.496451383e-031 -27.76390076 20.11240005
lfingers  90 7.125020027 -90
lowerneck  -2.946729898 5.35311985 -4.071040154
upperneck  6.233410358 6.952200413 6.664790154
head  2.10532999 3.548069954 3.041130066
47
root  11.09675535 36.87977828 -7.346000071 -14.53439999 -49.48910141 11.14220047
lfemur  -23.52249718 3.346870184 -11.54470158
ltibia  -1.491570742e-006 -8.364404493e-007 58.79819107
lfoot  5.521815751e-007 -18.14909554 -2.825919628
ltoes  -4.250644065 -19.5611806 -102.515957
rfemur  -12.94649696 15.5265007 1.292258143
rtibia  -8.727266732e-007 2.533748784e-007 66.47579193
rfoot  -2.316020982e-006 -27.32089615 -11.69569874
rtoes  5.373923086 19.29304026 -105.8922705
lowerback  12.02659988 1.91482985 -2.608040094
upperback  4.161630154 2.172250032 0.6596059799
thorax  -2.504980087 1.034160018 1.851809978
rclavicle  0 -9.442270133e-015 7.951389973e-016
rhumerus  6.63918066 14.22019958 -72.3635025
rradius  -7.782816926e-012 0.001642658608 141.9929962
rwrist  0.002739921212 0.003270594636 -22.94560051
rthumb  -92.93752616 -24.25625642 -97.11982154
rhand  -7.920061211e-032 -33.2840004 9.303460121
rfingers  -90 -7.125020027 -90
lclavicle  0 -9.442270133e-015 7.951389973e-016
lhumerus  12.82249928 -3.728170633 63.47230148
lradius  1.032090038e-011 -0.003757435596 137.4779968
lwrist  1.816137865e-011 1.409039812e-011 14.81470013
lthumb  89.89689403 5.08795885 91.16245106
lhand  -1.496451383e-031 -27.76390076 20.11240005
lfingers  90 7.125020027 -90
lowerneck  -2.460479975 5.389389992 -4.447299957
upperneck  6.204850674 6.999660015 6.778320312
head  1.988700032 3.558670044 3.125119925
